<?xml version="1.0" encoding="UTF-8" standalone="no"?>
<!DOCTYPE svg PUBLIC "-//W3C//DTD SVG 1.1//EN" "http://www.w3.org/Graphics/SVG/1.1/DTD/svg11.dtd">
<svg xmlns="http://www.w3.org/2000/svg" version="1.1" viewBox="0 0 188 92" width="188.0pt" height="92.0pt">
<path d="M 0.00 0.00 L 188.00 0.00 L 188.00 92.00 L 0.00 92.00 L 0.00 0.00 Z" fill="#ffc042" />
<path d="M 174.53 21.23 C 175.56 27.09 170.04 32.45 167.06 37.07 C 165.45 39.72 163.67 39.20 160.94 39.34 C 158.16 35.36 154.94 31.52 152.64 27.24 C 149.90 21.18 152.78 14.29 158.92 11.89 C 165.69 8.98 173.86 13.93 174.53 21.23 Z" fill="#009e81" />
<path d="M 163.01 16.70 C 166.67 16.68 169.70 20.17 168.81 23.83 C 167.55 26.97 165.04 29.67 163.14 32.46 C 161.23 29.80 158.73 27.13 157.55 24.05 C 156.40 20.33 159.34 16.93 163.01 16.70 Z" fill="#ffc042" />
<path d="M 62.92 24.90 C 65.46 25.44 64.86 28.00 65.08 29.98 C 64.91 39.31 65.24 48.68 64.93 57.99 C 65.02 61.18 59.99 61.59 59.37 58.66 C 58.90 55.50 59.23 52.19 59.18 49.00 C 59.25 42.00 59.07 34.98 59.21 27.98 C 58.98 25.96 61.02 24.11 62.92 24.90 Z" fill="#009e81" />
<path d="M 51.39 29.60 C 53.46 31.45 51.82 34.87 49.16 34.68 C 46.33 33.43 44.22 31.60 40.96 31.39 C 35.86 30.71 31.15 33.51 29.23 38.27 C 27.14 43.60 28.51 51.20 33.94 54.07 C 38.18 56.84 43.90 55.20 48.10 53.14 C 48.06 50.92 48.03 48.71 48.03 46.50 C 45.41 46.51 42.73 46.67 40.13 46.35 C 37.99 44.81 38.15 42.09 40.96 41.67 C 44.78 41.41 49.14 41.03 52.83 42.12 C 54.61 45.00 53.66 49.74 53.79 53.04 C 54.05 56.87 50.36 58.21 47.45 59.46 C 41.32 62.01 34.01 61.17 28.58 57.41 C 20.48 51.28 19.80 38.14 27.08 31.09 C 33.55 24.59 44.07 24.59 51.39 29.60 Z" fill="#009e81" />
<path d="M 80.44 34.54 C 87.29 33.13 94.32 36.93 96.29 43.74 C 98.29 50.22 95.19 57.29 88.85 59.84 C 81.25 63.10 71.97 59.23 70.02 50.99 C 68.11 43.66 72.97 35.85 80.44 34.54 Z" fill="#009e81" />
<path d="M 136.47 34.61 C 142.77 33.22 149.35 36.02 152.04 42.00 C 154.94 48.30 152.63 56.19 146.33 59.34 C 139.06 63.18 129.53 60.14 126.72 52.21 C 124.08 44.71 128.67 36.24 136.47 34.61 Z" fill="#009e81" />
<path d="M 104.68 36.30 C 107.18 41.93 109.20 47.79 111.52 53.50 C 113.76 48.04 115.78 42.49 118.05 37.04 C 118.63 35.46 120.22 33.96 121.98 34.72 C 123.61 35.08 124.22 37.13 123.55 38.55 C 121.48 43.98 118.81 49.19 116.61 54.58 C 115.49 56.89 114.60 60.12 111.93 61.05 C 108.59 61.18 107.91 57.69 106.66 55.32 C 104.33 49.45 101.30 43.79 99.26 37.83 C 98.45 34.48 103.62 33.19 104.68 36.30 Z" fill="#009e81" />
<path d="M 80.18 40.18 C 83.15 38.87 86.73 39.74 88.88 42.11 C 91.62 45.06 91.76 50.08 89.18 53.17 C 86.45 56.62 80.47 56.74 77.58 53.43 C 73.98 49.44 74.88 42.24 80.18 40.18 Z" fill="#ffc042" />
<path d="M 136.29 40.32 C 139.21 38.87 142.84 39.59 145.11 41.89 C 148.09 44.87 148.22 50.25 145.39 53.38 C 142.54 56.71 136.52 56.67 133.79 53.20 C 130.49 49.31 131.32 42.43 136.29 40.32 Z" fill="#ffc042" />
<path d="M 161.14 41.97 C 163.10 40.67 165.90 41.59 166.31 44.01 C 166.65 45.95 164.95 47.86 162.99 47.62 C 159.94 47.69 158.85 43.72 161.14 41.97 Z" fill="#009e81" />
</svg>