<?xml version="1.0" encoding="UTF-8" standalone="no"?>
<!DOCTYPE svg PUBLIC "-//W3C//DTD SVG 1.1//EN" "http://www.w3.org/Graphics/SVG/1.1/DTD/svg11.dtd">
<svg xmlns="http://www.w3.org/2000/svg" version="1.1" viewBox="0 0 478 338" width="478.0pt" height="338.0pt">
<path d="M 0.00 0.00 L 478.00 0.00 L 478.00 338.00 L 0.00 338.00 L 0.00 0.00 Z" fill="#013dfc" />
<path d="M 337.99 32.59 C 342.27 33.29 344.38 36.24 346.66 39.58 C 357.27 39.04 368.10 40.24 376.20 47.79 C 384.43 55.28 385.70 68.87 378.45 77.46 C 372.82 83.97 364.73 85.84 356.54 86.80 C 357.25 91.00 357.01 95.28 357.56 99.45 C 359.90 103.04 362.99 106.01 364.98 109.88 C 369.69 118.25 371.13 128.20 367.78 137.34 C 363.64 148.67 354.80 157.15 344.00 162.21 C 349.63 166.36 354.46 170.85 358.90 176.27 C 358.75 171.50 358.14 166.71 358.26 161.95 C 358.40 157.35 362.49 154.12 366.95 154.29 C 378.64 154.21 390.35 154.31 402.04 154.25 C 405.05 154.22 407.84 154.67 409.97 156.99 C 412.34 159.40 411.85 162.90 411.84 166.00 C 411.25 177.03 410.04 188.04 409.25 199.06 C 408.26 208.54 408.04 218.18 406.52 227.59 C 409.62 231.12 412.43 234.75 414.13 239.18 C 418.20 249.11 416.75 260.84 410.67 269.63 C 403.26 280.58 388.82 286.04 376.12 281.87 C 367.37 279.26 360.97 273.03 356.76 265.08 C 353.52 268.18 350.36 271.19 346.66 273.74 C 328.56 286.33 302.61 287.09 283.84 275.52 C 282.44 277.98 281.06 281.14 278.26 282.28 C 276.30 282.88 274.04 282.81 272.00 282.86 C 258.99 282.78 245.97 282.84 232.97 282.83 C 230.02 282.99 227.69 281.89 225.17 280.55 C 222.86 281.74 220.75 282.92 218.05 282.81 C 206.69 282.87 195.33 282.77 183.97 282.85 C 181.44 282.75 178.89 282.95 176.86 281.17 C 174.43 279.22 174.02 276.66 173.05 273.86 C 164.11 279.15 154.53 282.74 144.02 282.80 C 127.68 282.85 111.33 282.78 94.99 282.84 C 92.38 282.73 89.94 282.99 87.80 281.22 C 85.17 279.18 84.29 276.27 84.39 273.04 C 84.41 237.41 84.42 201.62 84.39 166.00 C 84.29 162.96 85.08 160.09 85.35 157.10 C 85.02 154.39 84.35 151.77 84.39 149.01 C 84.37 128.02 84.42 106.98 84.37 85.98 C 84.41 83.12 84.34 80.54 86.14 78.14 C 88.32 75.26 91.58 74.74 94.99 74.69 C 102.00 74.70 109.02 74.67 116.03 74.70 C 119.13 74.60 121.53 75.98 124.11 77.44 C 130.44 73.07 137.52 75.17 145.00 74.70 C 149.70 74.99 156.50 73.63 160.45 76.55 C 164.82 79.67 163.53 85.53 163.79 90.16 C 168.33 87.62 172.72 85.26 177.95 84.51 C 184.77 83.08 191.35 84.08 197.96 85.91 C 198.98 83.26 199.55 80.68 201.94 78.88 C 204.46 76.79 208.91 77.40 212.01 77.05 C 218.79 76.90 226.29 75.81 232.80 77.62 C 239.89 75.26 248.25 75.91 255.67 75.65 C 255.24 69.70 254.43 64.32 258.22 59.22 C 261.66 54.45 266.83 53.34 272.43 53.57 C 276.43 47.30 281.97 42.57 289.23 40.57 C 296.37 38.33 302.94 39.58 310.08 39.24 C 318.78 36.42 328.35 31.14 337.99 32.59 Z" fill="#fefefd" />
<path d="M 337.83 41.35 C 338.84 43.98 339.87 46.61 340.89 49.24 C 346.79 48.19 352.85 47.77 358.80 48.66 C 364.39 49.67 369.78 52.16 372.82 57.19 C 376.21 63.11 374.80 71.18 368.62 74.63 C 361.07 78.97 350.77 78.81 342.43 77.42 C 344.67 80.80 346.80 84.00 347.77 88.01 C 349.10 92.81 348.47 97.40 347.51 102.19 C 352.97 107.31 357.72 112.55 359.95 119.88 C 361.45 125.33 361.30 131.63 358.76 136.77 C 354.75 145.31 346.99 151.89 338.21 155.20 C 327.03 159.47 314.69 160.29 303.04 157.49 C 295.43 155.68 287.39 151.59 283.41 144.55 C 281.20 140.78 281.28 136.92 281.22 132.70 C 275.91 131.03 271.21 128.68 268.37 123.64 C 265.25 118.49 265.47 112.74 268.43 107.58 C 265.28 100.94 262.26 93.42 264.15 85.98 C 265.22 81.43 268.38 78.61 270.96 74.98 C 268.57 73.65 266.04 72.69 263.50 71.70 C 263.75 69.66 263.89 67.46 264.55 65.51 C 265.44 63.46 267.79 61.76 270.08 62.51 C 273.52 64.37 275.58 68.09 277.43 71.37 C 277.60 65.18 278.28 59.40 282.50 54.56 C 287.54 48.92 295.79 47.56 302.98 47.63 C 306.45 47.56 310.35 49.03 313.47 47.47 C 321.66 44.17 328.66 40.36 337.83 41.35 Z" fill="#013dfc" />
<path d="M 336.16 43.06 C 337.04 45.30 337.91 47.55 338.76 49.81 C 332.59 51.69 327.00 54.20 321.42 57.43 C 306.90 65.43 292.56 73.76 278.48 82.54 C 274.03 85.30 269.77 88.28 265.18 90.81 C 265.58 89.33 266.06 87.89 266.61 86.47 C 268.13 85.00 270.15 83.98 271.92 82.83 C 281.51 76.96 289.71 69.55 297.50 61.50 C 302.19 56.60 307.54 52.56 313.74 49.73 C 320.78 46.53 328.34 43.33 336.16 43.06 Z" fill="#fefefd" />
<path d="M 359.96 51.11 C 365.21 52.31 370.61 55.49 372.10 61.00 C 373.43 65.73 371.51 70.84 367.05 73.07 C 360.39 76.54 351.68 76.58 344.42 75.47 C 345.60 74.59 346.75 73.68 347.93 72.80 C 352.01 73.33 355.92 73.71 359.99 72.80 C 363.42 72.11 366.74 70.63 368.36 67.34 C 369.14 64.91 369.12 61.69 367.28 59.71 C 364.76 56.75 360.72 55.61 357.01 55.10 C 351.12 54.07 344.94 55.63 340.15 59.19 C 332.96 64.60 327.69 73.30 320.21 78.22 C 315.11 81.60 309.12 83.45 303.02 81.93 C 299.01 80.98 295.92 78.87 292.50 76.72 C 299.63 71.99 307.22 67.90 314.65 63.66 C 321.95 59.67 329.52 54.90 337.46 52.53 C 344.62 50.31 352.60 49.52 359.96 51.11 Z" fill="#fefefd" />
<path d="M 354.03 57.11 C 358.04 57.49 362.29 57.64 365.29 60.72 C 367.53 62.87 367.20 66.93 364.56 68.62 C 360.61 71.47 354.64 71.40 350.02 71.03 C 352.35 66.47 353.98 62.36 354.03 57.11 Z" fill="#fefefd" />
<path d="M 290.57 77.95 C 294.47 80.56 298.30 82.87 302.83 84.26 C 302.59 85.85 302.35 87.45 302.10 89.04 C 303.71 89.63 305.30 90.24 306.90 90.84 C 305.14 91.72 303.39 92.60 301.63 93.49 C 302.40 96.18 303.25 98.83 304.18 101.47 C 308.65 101.60 312.64 102.25 316.93 103.49 C 318.17 100.17 319.71 96.58 319.06 92.97 C 318.55 89.36 316.90 86.40 315.20 83.26 C 318.65 81.77 322.15 78.74 325.96 79.20 C 330.74 79.42 335.40 78.84 340.12 78.11 C 342.89 81.73 345.31 85.39 346.08 89.98 C 347.08 94.56 345.61 98.46 345.38 102.93 C 347.98 106.20 351.43 108.69 353.77 112.24 C 358.18 118.43 360.15 126.12 357.77 133.52 C 354.53 142.67 346.28 149.93 337.31 153.29 C 327.74 157.09 317.58 157.50 307.46 156.25 C 299.59 154.89 290.90 151.68 286.16 144.86 C 283.51 141.15 283.40 137.13 283.28 132.74 C 285.41 132.24 287.54 131.72 289.67 131.22 C 289.69 130.55 289.71 129.87 289.73 129.20 C 286.66 129.68 283.05 130.78 280.03 129.93 C 272.62 128.31 266.58 120.02 268.55 112.43 C 269.76 108.60 273.93 105.44 277.98 105.52 C 281.33 105.46 284.64 107.34 287.86 108.21 C 292.24 104.57 294.13 99.39 292.01 93.90 C 289.82 89.35 286.25 86.07 285.20 80.89 C 286.94 79.87 288.74 78.81 290.57 77.95 Z" fill="#fefefd" />
<path d="M 93.41 83.68 C 97.20 83.14 101.17 83.43 105.00 83.35 C 108.98 83.35 113.20 83.14 117.11 83.88 C 117.87 91.53 117.15 99.32 117.37 107.01 C 121.83 107.20 126.29 107.24 130.76 107.15 C 130.81 99.23 130.67 91.33 131.00 83.41 C 139.07 83.42 147.13 83.42 155.19 83.41 C 155.41 106.17 155.34 128.95 155.22 151.71 C 147.11 151.76 138.99 151.73 130.88 151.70 C 130.69 141.55 130.86 131.41 130.74 121.26 C 126.29 121.27 121.84 121.29 117.39 121.32 C 117.31 131.46 117.45 141.60 117.29 151.73 C 109.18 151.72 101.07 151.76 92.95 151.73 C 92.51 133.16 92.94 114.57 92.73 96.00 C 92.72 91.97 92.52 87.63 93.41 83.68 Z" fill="#f993f6" />
<path d="M 331.82 83.31 C 334.75 84.62 337.27 86.32 338.49 89.43 C 340.35 93.57 339.42 97.37 338.28 101.52 C 334.83 100.78 331.50 100.35 327.98 100.18 C 327.24 98.07 326.53 95.96 325.87 93.83 C 327.25 93.16 328.63 92.48 330.01 91.81 C 328.53 91.19 327.05 90.57 325.58 89.95 C 327.16 86.90 328.50 84.63 331.82 83.31 Z" fill="#013dfc" />
<path d="M 258.85 84.30 C 256.48 99.57 253.67 114.77 251.20 130.02 C 250.13 136.48 248.73 142.55 245.12 148.11 C 241.81 153.34 237.00 157.42 230.86 158.81 C 224.82 160.27 219.43 158.90 213.57 157.49 C 213.33 148.37 212.62 139.29 212.61 130.18 C 217.11 130.69 222.34 131.78 226.79 130.69 C 229.36 130.21 231.08 127.33 232.78 125.59 C 227.39 125.37 222.00 125.52 216.61 125.65 C 213.37 112.35 210.09 99.05 207.11 85.69 C 213.97 85.56 220.82 85.40 227.68 85.32 C 229.68 94.69 231.23 104.31 234.03 113.47 C 236.10 104.00 236.60 94.28 238.65 84.83 C 245.36 84.33 252.13 84.49 258.85 84.30 Z" fill="#f993f6" />
<path d="M 178.02 93.29 C 186.43 91.47 196.44 92.80 202.14 99.89 C 206.61 105.48 208.60 113.70 207.93 120.74 C 198.36 122.44 188.49 120.62 178.85 122.66 C 181.39 124.33 183.85 126.45 187.00 126.77 C 192.70 127.45 198.97 126.08 204.60 125.07 C 204.86 132.87 205.30 140.66 205.46 148.47 C 197.22 150.16 189.37 151.43 180.97 149.78 C 173.64 148.41 166.96 144.38 163.12 137.87 C 157.32 128.19 157.47 116.23 162.13 106.12 C 165.12 99.48 170.93 94.88 178.02 93.29 Z" fill="#f993f6" />
<path d="M 332.16 101.55 C 334.89 103.18 335.42 106.50 334.38 109.30 C 333.01 111.32 329.88 112.13 327.70 113.02 C 327.60 112.36 327.50 111.69 327.40 111.03 C 329.12 110.22 331.01 109.43 332.53 108.28 C 333.06 106.11 332.76 104.93 331.17 103.33 C 328.38 103.66 325.68 105.44 323.14 106.62 C 323.36 105.82 323.58 105.02 323.80 104.22 C 326.38 102.35 328.78 100.65 332.16 101.55 Z" fill="#013dfc" />
<path d="M 181.40 107.41 C 183.02 106.25 185.98 106.25 187.60 107.42 C 188.81 108.94 189.67 110.64 190.56 112.36 C 186.49 112.53 182.43 112.61 178.36 112.58 C 179.28 110.87 180.04 108.82 181.40 107.41 Z" fill="#fefefd" />
<path d="M 280.89 110.30 C 283.40 111.68 285.68 113.21 287.34 115.60 C 289.21 118.30 290.17 121.87 291.22 124.96 C 289.29 123.44 287.23 121.15 284.83 120.46 C 281.98 120.17 279.06 120.59 276.18 120.41 C 279.60 117.87 282.99 118.08 287.03 118.20 C 284.28 115.09 281.04 112.79 277.59 110.53 C 278.69 110.44 279.79 110.36 280.89 110.30 Z" fill="#013dfc" />
<path d="M 339.98 115.76 C 345.69 115.19 350.70 120.40 350.79 125.97 C 351.31 132.15 347.13 137.19 341.98 140.02 C 334.47 144.00 324.88 144.22 316.78 142.16 C 311.93 140.87 307.48 138.37 305.51 133.52 C 302.61 127.33 307.05 118.63 313.92 117.75 C 317.93 117.73 321.90 119.66 326.01 119.47 C 331.16 119.26 335.13 116.58 339.98 115.76 Z" fill="#013dfc" />
<path d="M 341.05 117.81 C 345.31 118.26 348.45 121.80 348.68 126.03 C 348.86 128.90 347.63 131.26 346.64 133.87 C 344.37 132.07 342.00 129.66 339.21 128.73 C 336.67 127.99 333.64 128.41 331.03 128.56 C 326.29 129.03 321.72 127.34 316.98 128.77 C 313.48 129.83 310.82 132.59 308.03 134.87 C 307.52 132.19 306.07 128.74 307.27 126.16 C 308.42 123.08 310.60 120.42 314.03 119.92 C 318.52 120.19 322.42 121.94 327.03 121.50 C 332.10 121.21 336.20 118.38 341.05 117.81 Z" fill="#fefefd" />
<path d="M 317.96 130.73 C 320.56 130.08 323.45 130.01 326.06 130.68 C 329.03 131.82 331.54 134.50 334.08 136.40 C 333.26 134.35 332.38 132.32 331.49 130.29 C 334.70 130.48 338.12 130.05 340.93 131.90 C 342.39 132.93 343.82 133.89 343.90 135.85 C 341.69 138.52 337.48 139.70 334.25 140.54 C 325.93 142.24 316.61 141.73 309.70 136.29 C 312.19 134.19 314.76 131.68 317.96 130.73 Z" fill="#f993f6" />
<path d="M 93.44 162.69 C 108.91 162.30 124.51 162.68 140.00 162.52 C 148.73 162.22 158.24 163.67 165.87 168.12 C 170.80 170.98 174.66 175.35 176.00 180.98 C 177.36 187.33 177.27 194.39 174.29 200.29 C 172.58 203.86 169.86 206.27 167.02 208.91 C 170.15 210.84 173.08 212.64 175.34 215.62 C 178.86 220.16 180.13 225.18 182.05 230.47 C 182.47 207.86 182.09 185.21 182.24 162.60 C 199.50 162.62 216.77 162.56 234.03 162.62 C 244.71 163.05 256.62 166.84 262.97 176.01 C 267.35 182.26 267.87 189.22 267.69 196.63 C 272.69 182.82 282.60 170.96 296.39 165.37 C 304.27 162.04 312.60 161.66 321.02 162.53 C 333.83 164.41 345.02 172.07 352.62 182.39 C 360.83 193.53 364.58 207.29 364.19 221.06 C 363.38 234.95 359.31 249.25 349.68 259.67 C 342.15 268.10 331.44 273.52 320.20 274.65 C 311.09 275.27 302.27 274.94 293.84 271.08 C 281.44 265.63 273.18 254.69 268.55 242.24 C 264.08 230.87 263.33 218.81 264.89 206.77 C 261.91 211.69 258.41 215.16 253.70 218.37 C 260.57 237.10 267.76 255.72 274.77 274.40 C 260.47 274.43 246.17 274.42 231.87 274.40 C 228.54 259.84 225.04 245.32 221.80 230.74 C 221.18 227.94 220.33 225.27 218.96 222.73 C 218.33 227.87 218.57 232.84 218.55 238.00 C 218.56 250.14 218.54 262.29 218.55 274.43 C 206.44 274.41 194.33 274.42 182.22 274.42 C 182.18 265.37 182.51 256.38 181.58 247.35 C 180.41 254.67 176.11 260.84 170.20 265.16 C 161.58 271.45 150.62 274.61 140.00 274.44 C 124.41 274.40 108.82 274.41 93.23 274.44 C 92.39 261.02 92.97 247.49 92.85 234.04 C 93.78 223.00 92.25 212.05 93.00 201.00 C 93.51 194.99 92.53 189.05 93.04 183.04 C 93.51 176.17 91.97 169.55 93.44 162.69 Z" fill="#013dfc" />
<path d="M 403.57 162.72 C 401.92 182.98 400.34 203.25 398.50 223.49 C 389.53 223.50 380.56 223.49 371.59 223.45 C 369.66 203.38 368.58 183.22 366.49 163.17 C 378.80 162.22 391.23 162.91 403.57 162.72 Z" fill="#f993f6" />
<path d="M 129.73 187.66 C 133.35 187.80 138.37 187.22 141.50 189.36 C 145.84 192.01 145.98 199.98 141.18 202.21 C 137.86 203.93 133.26 203.37 129.60 203.49 C 129.69 198.21 129.75 192.94 129.73 187.66 Z" fill="#fefefd" />
<path d="M 218.70 189.44 C 221.99 189.55 225.73 189.06 228.88 190.09 C 235.14 192.12 235.13 202.95 228.82 204.86 C 225.67 205.85 221.99 205.42 218.71 205.51 C 218.71 200.15 218.71 194.80 218.70 189.44 Z" fill="#fefefd" />
<path d="M 309.45 195.55 C 313.53 193.68 318.18 194.52 321.55 197.40 C 328.92 203.52 329.51 216.28 323.59 223.54 C 320.01 228.11 313.48 228.99 308.38 226.70 C 303.80 224.40 301.52 218.84 300.76 214.04 C 299.79 207.10 302.67 198.56 309.45 195.55 Z" fill="#fefefd" />
<path d="M 129.71 218.71 C 133.54 218.81 137.93 218.25 141.60 219.46 C 146.57 220.88 147.54 229.55 142.91 231.92 C 139.20 234.21 133.81 233.56 129.59 233.66 C 129.70 228.68 129.76 223.69 129.71 218.71 Z" fill="#fefefd" />
<path d="M 379.42 228.56 C 387.72 226.21 396.70 229.30 402.19 235.84 C 409.78 244.47 409.49 258.39 401.92 266.94 C 395.48 274.31 384.44 276.80 375.59 272.41 C 366.47 268.08 361.23 257.94 362.69 247.97 C 363.78 238.85 370.57 230.99 379.42 228.56 Z" fill="#f993f6" />
</svg>