<?xml version="1.0" encoding="UTF-8" standalone="no"?>
<!DOCTYPE svg PUBLIC "-//W3C//DTD SVG 1.1//EN" "http://www.w3.org/Graphics/SVG/1.1/DTD/svg11.dtd">
<svg xmlns="http://www.w3.org/2000/svg" version="1.1" viewBox="0 0 606 585" width="606.0pt" height="585.0pt">
<path d="M 0.00 0.00 L 606.00 0.00 L 606.00 219.52 C 604.04 211.17 600.99 203.03 598.12 194.96 C 595.71 188.70 592.48 182.64 589.67 176.52 C 585.97 168.75 583.11 160.97 578.29 153.76 C 570.65 142.29 564.40 131.00 555.70 120.34 C 552.00 115.71 547.91 111.45 543.88 107.12 C 539.64 102.58 536.15 97.58 531.77 93.22 C 528.79 90.23 525.45 87.47 522.26 84.70 C 516.11 79.39 510.40 73.95 503.89 69.04 C 494.35 61.83 483.88 55.72 473.89 49.05 C 465.60 43.55 456.71 40.29 447.79 36.07 C 443.24 33.95 438.83 31.55 434.23 29.67 C 428.39 27.28 422.10 25.71 416.07 23.65 C 408.41 21.13 401.12 18.10 393.29 16.65 C 386.79 15.44 380.23 14.55 373.74 13.22 C 368.54 12.15 363.33 11.19 358.03 10.77 C 342.68 9.57 327.32 9.23 311.93 9.80 C 302.92 10.49 293.96 10.24 285.24 11.80 C 281.25 12.51 277.30 13.42 273.32 14.15 C 265.43 15.64 257.72 16.33 250.03 18.86 C 241.76 21.53 233.51 24.29 225.23 26.93 C 219.10 28.88 213.31 31.58 207.55 34.41 C 197.20 39.47 187.14 43.10 177.47 49.41 C 169.03 54.98 160.32 60.17 152.12 66.07 C 144.55 71.45 137.58 77.49 130.62 83.63 C 125.76 87.95 120.94 91.75 116.76 96.77 C 107.32 108.86 96.08 118.71 87.68 131.79 C 83.58 138.32 79.28 144.72 75.07 151.17 C 69.87 159.16 66.10 167.68 62.20 176.33 C 58.75 184.08 54.73 191.22 52.04 199.31 C 49.27 207.56 46.71 215.88 44.01 224.15 C 40.92 233.38 40.36 242.61 38.25 252.27 C 34.91 268.13 34.40 283.85 34.59 300.00 C 34.48 312.04 34.54 323.98 36.00 335.95 C 36.83 343.36 38.47 350.52 39.69 357.86 C 41.01 367.91 43.68 377.24 47.05 386.76 C 50.04 395.84 52.16 404.81 56.42 413.45 C 63.03 426.84 68.03 440.09 76.22 452.69 C 80.19 458.75 84.16 464.80 88.05 470.90 C 93.24 478.96 100.00 486.35 106.31 493.62 C 112.15 500.09 117.10 506.63 123.93 512.13 C 131.54 518.16 138.20 525.22 145.81 531.24 C 152.86 537.17 160.66 541.69 168.26 546.82 C 172.92 549.91 177.54 552.92 182.42 555.67 C 191.18 560.64 200.52 564.04 209.53 568.63 C 215.79 571.84 222.03 574.37 228.77 576.39 C 238.00 579.21 247.09 582.61 256.44 585.00 L 0.00 585.00 L 0.00 0.00 Z" fill="#ffffff" />
<path d="M 311.93 9.80 C 327.32 9.23 342.68 9.57 358.03 10.77 C 363.33 11.19 368.54 12.15 373.74 13.22 C 380.23 14.55 386.79 15.44 393.29 16.65 C 401.12 18.10 408.41 21.13 416.07 23.65 C 422.10 25.71 428.39 27.28 434.23 29.67 C 438.83 31.55 443.24 33.95 447.79 36.07 C 456.71 40.29 465.60 43.55 473.89 49.05 C 483.88 55.72 494.35 61.83 503.89 69.04 C 510.40 73.95 516.11 79.39 522.26 84.70 C 525.45 87.47 528.79 90.23 531.77 93.22 C 536.15 97.58 539.64 102.58 543.88 107.12 C 547.91 111.45 552.00 115.71 555.70 120.34 C 564.40 131.00 570.65 142.29 578.29 153.76 C 583.11 160.97 585.97 168.75 589.67 176.52 C 592.48 182.64 595.71 188.70 598.12 194.96 C 600.99 203.03 604.04 211.17 606.00 219.52 L 606.00 263.93 C 604.58 259.69 603.16 255.50 602.49 251.06 C 600.94 241.41 599.31 231.95 596.12 222.68 C 593.76 215.92 591.88 209.02 589.64 202.22 C 587.15 194.65 583.43 187.91 580.14 180.70 C 577.31 174.53 574.76 168.41 571.45 162.44 C 568.12 156.40 563.89 150.62 560.03 144.85 C 556.07 139.03 552.60 133.21 548.27 127.65 C 543.61 121.62 538.32 116.34 533.42 110.54 C 530.48 107.10 527.81 103.66 524.48 100.56 C 520.84 97.18 516.82 94.21 513.07 90.93 C 506.78 85.57 501.41 80.04 494.72 75.35 C 490.00 72.06 485.15 68.97 480.41 65.72 C 474.03 61.43 467.58 56.79 460.71 53.42 C 455.98 51.07 451.11 49.03 446.34 46.77 C 439.40 43.56 432.92 40.02 425.67 37.50 C 418.41 34.97 410.97 32.99 403.68 30.53 C 391.74 26.55 379.76 25.50 367.49 22.67 C 358.82 20.70 350.40 21.70 341.66 20.76 C 335.74 20.17 329.97 19.30 323.99 19.44 C 318.74 19.47 313.68 20.33 308.48 20.83 C 300.66 21.61 293.06 20.85 285.28 22.52 C 271.47 25.61 258.47 26.85 245.24 31.42 C 238.48 33.74 231.57 35.62 224.83 38.03 C 219.09 40.07 213.81 42.82 208.33 45.44 C 199.95 49.49 191.49 52.58 183.63 57.70 C 175.36 63.09 167.22 68.66 158.94 74.04 C 151.65 78.85 145.99 84.74 139.35 90.36 C 132.80 96.13 126.21 100.79 120.70 107.62 C 116.71 112.63 112.45 117.36 108.15 122.09 C 100.98 130.09 95.83 138.87 89.85 147.72 C 85.63 154.11 81.04 160.67 77.69 167.54 C 75.69 171.61 73.94 175.82 72.03 179.93 C 68.64 187.36 64.76 194.24 62.24 202.07 C 60.05 208.88 58.13 215.77 55.74 222.53 C 51.54 234.67 50.28 246.93 47.57 259.40 C 46.35 265.24 46.28 271.10 46.13 277.03 C 45.93 285.11 44.33 292.93 44.39 301.02 C 44.30 306.34 44.97 311.58 45.56 316.85 C 46.63 326.10 45.74 335.06 47.83 344.22 C 50.64 356.56 51.80 368.41 55.83 380.32 C 58.27 387.59 60.39 394.97 62.98 402.18 C 65.38 408.91 68.64 415.04 71.63 421.49 C 74.73 428.12 77.44 434.61 81.20 440.92 C 84.16 445.88 87.48 450.65 90.62 455.50 C 95.20 462.40 99.22 469.15 104.59 475.45 C 108.58 480.13 112.69 484.70 116.69 489.36 C 121.88 495.28 126.45 501.32 132.62 506.31 C 140.04 512.24 146.64 519.01 154.26 524.68 C 162.13 530.75 170.54 535.59 178.76 541.15 C 186.49 546.60 194.90 550.59 203.52 554.38 C 210.94 557.77 217.80 561.64 225.58 564.27 C 232.36 566.59 239.28 568.49 246.08 570.80 C 259.71 575.54 273.39 577.04 287.54 579.97 C 293.73 580.97 299.65 580.55 305.86 581.00 C 311.94 581.40 317.81 582.56 323.92 582.60 C 329.96 582.77 335.89 582.07 341.88 581.42 C 350.83 580.38 359.49 581.28 368.37 579.28 C 380.27 576.57 392.02 575.49 403.60 571.42 C 411.13 568.76 418.85 566.74 426.42 564.20 C 434.45 561.54 441.40 557.41 449.06 553.97 C 454.58 551.46 460.06 549.29 465.30 546.19 C 471.29 542.65 476.94 538.47 482.74 534.63 C 487.76 531.25 492.94 528.22 497.69 524.63 C 502.73 520.84 507.40 516.33 512.24 512.22 C 517.15 507.97 522.08 504.32 526.48 499.51 C 530.30 495.32 533.74 490.78 537.51 486.52 C 541.84 481.51 546.64 476.82 550.48 471.55 C 553.59 467.30 556.28 462.72 559.22 458.34 C 563.43 451.95 568.20 445.66 571.85 439.02 C 574.60 434.02 576.94 428.66 579.32 423.46 C 583.09 415.09 587.41 407.17 590.22 398.38 C 592.75 390.53 595.22 382.65 597.66 374.77 C 601.28 362.59 601.51 350.03 606.00 338.21 L 606.00 382.64 C 604.39 389.65 601.62 396.40 599.46 403.26 C 596.99 411.09 592.93 418.00 589.64 425.47 C 586.99 431.39 584.48 437.59 581.34 443.24 C 578.68 448.06 575.43 452.68 572.45 457.34 C 567.05 465.78 561.66 474.49 555.29 482.27 C 551.25 487.22 547.06 492.05 542.84 496.84 C 538.40 501.87 534.39 506.92 529.12 511.15 C 518.79 519.18 510.18 528.91 499.32 536.38 C 490.95 542.05 482.40 547.48 473.92 552.98 C 463.60 559.66 452.68 563.22 441.71 568.88 C 431.32 574.25 420.74 577.06 409.54 580.83 C 404.87 582.29 400.19 583.91 395.42 585.00 L 256.44 585.00 C 247.09 582.61 238.00 579.21 228.77 576.39 C 222.03 574.37 215.79 571.84 209.53 568.63 C 200.52 564.04 191.18 560.64 182.42 555.67 C 177.54 552.92 172.92 549.91 168.26 546.82 C 160.66 541.69 152.86 537.17 145.81 531.24 C 138.20 525.22 131.54 518.16 123.93 512.13 C 117.10 506.63 112.15 500.09 106.31 493.62 C 100.00 486.35 93.24 478.96 88.05 470.90 C 84.16 464.80 80.19 458.75 76.22 452.69 C 68.03 440.09 63.03 426.84 56.42 413.45 C 52.16 404.81 50.04 395.84 47.05 386.76 C 43.68 377.24 41.01 367.91 39.69 357.86 C 38.47 350.52 36.83 343.36 36.00 335.95 C 34.54 323.98 34.48 312.04 34.59 300.00 C 34.40 283.85 34.91 268.13 38.25 252.27 C 40.36 242.61 40.92 233.38 44.01 224.15 C 46.71 215.88 49.27 207.56 52.04 199.31 C 54.73 191.22 58.75 184.08 62.20 176.33 C 66.10 167.68 69.87 159.16 75.07 151.17 C 79.28 144.72 83.58 138.32 87.68 131.79 C 96.08 118.71 107.32 108.86 116.76 96.77 C 120.94 91.75 125.76 87.95 130.62 83.63 C 137.58 77.49 144.55 71.45 152.12 66.07 C 160.32 60.17 169.03 54.98 177.47 49.41 C 187.14 43.10 197.20 39.47 207.55 34.41 C 213.31 31.58 219.10 28.88 225.23 26.93 C 233.51 24.29 241.76 21.53 250.03 18.86 C 257.72 16.33 265.43 15.64 273.32 14.15 C 277.30 13.42 281.25 12.51 285.24 11.80 C 293.96 10.24 302.92 10.49 311.93 9.80 Z" fill="#dbdfe4" />
<path d="M 323.99 19.44 C 329.97 19.30 335.74 20.17 341.66 20.76 C 350.40 21.70 358.82 20.70 367.49 22.67 C 379.76 25.50 391.74 26.55 403.68 30.53 C 410.97 32.99 418.41 34.97 425.67 37.50 C 432.92 40.02 439.40 43.56 446.34 46.77 C 451.11 49.03 455.98 51.07 460.71 53.42 C 467.58 56.79 474.03 61.43 480.41 65.72 C 485.15 68.97 490.00 72.06 494.72 75.35 C 501.41 80.04 506.78 85.57 513.07 90.93 C 516.82 94.21 520.84 97.18 524.48 100.56 C 527.81 103.66 530.48 107.10 533.42 110.54 C 538.32 116.34 543.61 121.62 548.27 127.65 C 552.60 133.21 556.07 139.03 560.03 144.85 C 563.89 150.62 568.12 156.40 571.45 162.44 C 574.76 168.41 577.31 174.53 580.14 180.70 C 583.43 187.91 587.15 194.65 589.64 202.22 C 591.88 209.02 593.76 215.92 596.12 222.68 C 599.31 231.95 600.94 241.41 602.49 251.06 C 603.16 255.50 604.58 259.69 606.00 263.93 L 606.00 338.21 C 601.51 350.03 601.28 362.59 597.66 374.77 C 595.22 382.65 592.75 390.53 590.22 398.38 C 587.41 407.17 583.09 415.09 579.32 423.46 C 576.94 428.66 574.60 434.02 571.85 439.02 C 568.20 445.66 563.43 451.95 559.22 458.34 C 556.28 462.72 553.59 467.30 550.48 471.55 C 546.64 476.82 541.84 481.51 537.51 486.52 C 533.74 490.78 530.30 495.32 526.48 499.51 C 522.08 504.32 517.15 507.97 512.24 512.22 C 507.40 516.33 502.73 520.84 497.69 524.63 C 492.94 528.22 487.76 531.25 482.74 534.63 C 476.94 538.47 471.29 542.65 465.30 546.19 C 460.06 549.29 454.58 551.46 449.06 553.97 C 441.40 557.41 434.45 561.54 426.42 564.20 C 418.85 566.74 411.13 568.76 403.60 571.42 C 392.02 575.49 380.27 576.57 368.37 579.28 C 359.49 581.28 350.83 580.38 341.88 581.42 C 335.89 582.07 329.96 582.77 323.92 582.60 C 317.81 582.56 311.94 581.40 305.86 581.00 C 299.65 580.55 293.73 580.97 287.54 579.97 C 273.39 577.04 259.71 575.54 246.08 570.80 C 239.28 568.49 232.36 566.59 225.58 564.27 C 217.80 561.64 210.94 557.77 203.52 554.38 C 194.90 550.59 186.49 546.60 178.76 541.15 C 170.54 535.59 162.13 530.75 154.26 524.68 C 146.64 519.01 140.04 512.24 132.62 506.31 C 126.45 501.32 121.88 495.28 116.69 489.36 C 112.69 484.70 108.58 480.13 104.59 475.45 C 99.22 469.15 95.20 462.40 90.62 455.50 C 87.48 450.65 84.16 445.88 81.20 440.92 C 77.44 434.61 74.73 428.12 71.63 421.49 C 68.64 415.04 65.38 408.91 62.98 402.18 C 60.39 394.97 58.27 387.59 55.83 380.32 C 51.80 368.41 50.64 356.56 47.83 344.22 C 45.74 335.06 46.63 326.10 45.56 316.85 C 44.97 311.58 44.30 306.34 44.39 301.02 C 44.33 292.93 45.93 285.11 46.13 277.03 C 46.28 271.10 46.35 265.24 47.57 259.40 C 50.28 246.93 51.54 234.67 55.74 222.53 C 58.13 215.77 60.05 208.88 62.24 202.07 C 64.76 194.24 68.64 187.36 72.03 179.93 C 73.94 175.82 75.69 171.61 77.69 167.54 C 81.04 160.67 85.63 154.11 89.85 147.72 C 95.83 138.87 100.98 130.09 108.15 122.09 C 112.45 117.36 116.71 112.63 120.70 107.62 C 126.21 100.79 132.80 96.13 139.35 90.36 C 145.99 84.74 151.65 78.85 158.94 74.04 C 167.22 68.66 175.36 63.09 183.63 57.70 C 191.49 52.58 199.95 49.49 208.33 45.44 C 213.81 42.82 219.09 40.07 224.83 38.03 C 231.57 35.62 238.48 33.74 245.24 31.42 C 258.47 26.85 271.47 25.61 285.28 22.52 C 293.06 20.85 300.66 21.61 308.48 20.83 C 313.68 20.33 318.74 19.47 323.99 19.44 Z" fill="#ffffff" />
<path d="M 313.44 30.50 C 326.84 29.53 340.06 30.46 353.42 31.60 C 387.49 35.00 420.89 44.93 451.26 60.76 C 482.59 77.03 510.70 99.56 533.37 126.62 C 563.41 162.31 583.90 205.87 592.24 251.77 C 599.36 291.08 597.89 332.04 587.70 370.67 C 576.05 414.94 552.90 456.16 521.06 489.06 C 492.06 519.26 455.85 542.52 416.33 556.37 C 360.72 576.12 298.48 576.83 242.34 558.70 C 204.46 546.53 169.41 525.84 140.40 498.61 C 103.35 463.90 76.32 418.44 63.76 369.23 C 58.00 347.26 55.40 324.68 54.99 302.00 C 55.23 272.46 59.56 243.06 69.02 215.03 C 82.49 174.14 106.07 136.90 136.79 106.78 C 158.48 85.88 183.41 68.46 210.73 55.73 C 242.90 40.64 277.93 32.06 313.44 30.50 Z" fill="#e7e8e8" />
<path d="M 309.43 33.44 C 337.66 31.79 366.08 34.37 393.46 41.51 C 433.53 51.80 471.06 71.55 502.22 98.77 C 534.10 126.50 559.20 161.90 574.85 201.15 C 589.98 239.02 596.28 280.33 593.20 320.99 C 590.98 352.93 582.80 384.38 569.47 413.47 C 547.26 461.87 510.31 503.26 464.62 530.63 C 431.02 550.97 392.79 563.67 353.73 567.64 C 318.68 571.24 282.85 568.01 249.08 557.95 C 201.41 543.88 157.99 516.18 125.07 478.94 C 96.60 446.87 76.08 407.85 65.78 366.22 C 57.28 331.88 55.62 295.82 60.83 260.84 C 66.62 221.77 81.23 184.06 103.31 151.31 C 130.02 111.25 167.85 78.89 211.41 58.42 C 242.15 43.95 275.51 35.46 309.43 33.44 Z" fill="#ffffff" />
<path d="M 318.00 59.16 C 330.04 59.20 341.54 58.77 353.52 60.35 C 398.36 65.29 441.45 83.18 476.70 111.30 C 499.93 129.83 519.76 152.52 534.81 178.16 C 554.45 211.40 565.82 249.43 567.67 288.00 C 567.93 300.23 568.15 312.70 566.76 324.87 C 563.09 361.99 550.57 398.07 530.53 429.53 C 511.70 459.20 486.27 484.70 456.70 503.68 C 424.34 524.48 387.07 537.30 348.76 540.79 C 330.17 542.41 311.11 542.12 292.62 539.55 C 241.06 532.55 192.28 508.28 155.49 471.51 C 133.52 449.77 115.82 423.69 103.63 395.29 C 90.11 363.77 83.48 329.29 84.34 295.00 C 85.01 257.59 94.72 220.33 112.31 187.31 C 127.23 158.99 147.97 134.01 172.62 113.64 C 204.72 87.26 243.66 69.35 284.63 62.35 C 295.69 60.51 306.78 59.12 318.00 59.16 Z" fill="#053bf4" />
<path d="M 367.57 69.09 C 401.30 75.06 433.69 88.57 461.63 108.37 C 490.08 128.39 513.97 154.78 531.08 185.06 C 558.91 233.85 567.95 292.55 556.61 347.52 C 548.55 387.26 529.84 424.63 503.04 455.04 C 462.37 501.75 402.86 531.23 340.95 534.69 C 332.00 535.42 322.90 535.59 313.96 534.85 C 263.92 532.55 215.05 513.46 176.49 481.52 C 138.51 450.34 110.70 407.12 98.41 359.51 C 92.25 335.61 89.70 310.60 91.35 285.96 C 94.73 224.76 123.52 165.95 169.30 125.30 C 196.96 100.53 230.51 82.44 266.45 73.08 C 299.36 64.50 334.09 63.11 367.57 69.09 Z" fill="#ffffff" />
<path d="M 375.02 106.70 C 378.17 106.58 382.40 106.93 384.87 109.14 C 387.01 111.54 388.17 114.96 389.53 117.84 C 387.10 114.66 383.54 109.93 379.12 109.90 C 372.69 109.27 366.18 109.72 359.89 111.22 C 355.86 112.21 351.78 112.46 347.65 112.73 C 356.39 109.83 365.79 107.21 375.02 106.70 Z" fill="#0e3deb" />
<path d="M 379.12 109.90 C 383.54 109.93 387.10 114.66 389.53 117.84 C 391.94 123.43 394.24 129.07 396.57 134.69 C 407.44 132.03 418.78 130.08 430.00 130.19 C 437.28 130.22 444.66 129.96 451.90 130.73 C 464.02 132.30 476.52 135.72 487.16 141.84 C 497.40 147.71 506.72 156.92 510.87 168.14 C 513.90 175.93 514.31 184.77 512.92 192.95 C 511.02 203.05 504.53 211.54 495.84 216.84 C 486.26 222.74 474.12 225.25 463.05 226.33 C 448.09 227.28 433.05 226.80 418.22 224.58 C 414.63 224.16 410.89 223.16 407.28 223.35 C 405.14 224.02 403.15 225.30 401.17 226.34 C 420.24 250.25 428.08 283.58 420.36 313.32 C 429.53 319.48 438.27 326.06 446.04 333.96 C 459.26 346.87 470.39 363.49 474.16 381.79 C 477.48 397.42 474.79 413.53 467.78 427.77 C 459.65 444.11 447.76 458.44 432.27 468.28 C 407.88 484.03 377.66 491.11 349.01 493.33 C 338.03 493.89 326.98 493.84 316.00 493.41 C 294.64 491.87 272.62 487.69 252.91 479.10 C 237.35 472.27 221.83 462.05 212.62 447.43 C 206.23 437.63 203.43 426.12 203.57 414.49 C 188.03 412.96 173.65 405.31 163.86 393.13 C 154.39 381.52 148.47 366.11 150.85 351.02 C 151.88 344.18 155.06 338.24 159.22 332.81 C 153.86 323.31 149.24 313.45 146.06 302.99 C 144.66 297.82 141.13 294.09 140.18 288.83 C 138.86 282.12 139.33 274.80 139.20 267.98 C 139.22 265.56 138.96 263.07 139.28 260.68 C 140.89 258.68 143.64 257.10 144.66 254.74 C 146.39 250.80 147.80 246.79 150.11 243.12 C 154.35 236.02 160.13 230.45 166.42 225.19 C 158.60 220.36 150.69 216.28 141.44 215.09 C 140.07 206.69 139.46 198.33 143.62 190.56 C 146.00 186.11 150.28 183.04 155.11 181.72 C 159.09 180.66 163.40 183.18 166.48 185.51 C 175.24 192.47 181.37 202.47 186.73 212.13 C 186.53 204.01 186.01 196.15 187.42 188.08 C 189.55 173.74 195.56 160.24 206.29 150.28 C 218.83 138.35 236.10 133.25 252.96 131.55 C 260.95 131.04 269.00 131.21 277.01 131.30 C 283.45 131.33 289.71 132.43 296.09 133.12 C 298.07 133.39 299.88 132.40 301.64 131.64 C 316.41 124.12 331.79 117.58 347.65 112.73 C 351.78 112.46 355.86 112.21 359.89 111.22 C 366.18 109.72 372.69 109.27 379.12 109.90 Z" fill="#033bfc" />
<path d="M 379.81 114.23 C 383.31 121.50 386.36 128.92 389.23 136.46 C 380.84 139.11 372.52 141.91 364.46 145.48 C 350.45 151.53 337.88 159.22 324.65 166.74 C 270.98 197.72 217.92 229.92 166.35 264.31 C 159.79 268.62 153.41 273.26 146.66 277.26 C 146.38 272.81 146.40 268.36 146.41 263.90 C 172.01 249.25 196.12 231.78 217.95 211.94 C 224.10 206.10 230.34 200.34 236.30 194.29 C 251.78 178.66 267.75 160.14 286.43 148.46 C 305.25 136.85 325.71 127.78 346.62 120.65 C 357.49 117.22 368.31 113.60 379.81 114.23 Z" fill="#fefefe" />
<path d="M 424.99 137.47 C 436.19 137.17 447.01 136.82 458.05 139.10 C 472.46 141.79 487.82 148.11 497.42 159.60 C 506.57 170.19 509.67 187.23 502.71 199.70 C 497.48 209.21 486.75 214.13 476.64 216.64 C 457.23 221.31 435.53 219.56 415.89 216.97 C 418.07 215.07 419.90 211.67 423.26 212.44 C 432.83 213.91 442.34 213.98 452.00 213.83 C 460.26 213.85 468.62 212.57 476.23 209.27 C 484.88 205.62 490.99 196.83 492.84 187.80 C 494.59 180.20 491.88 172.02 486.56 166.45 C 481.67 161.22 474.83 158.01 468.06 156.00 C 456.20 152.61 444.22 151.97 431.96 152.48 C 414.84 153.78 399.70 161.74 387.17 173.17 C 372.06 186.92 360.08 204.15 345.43 218.42 C 337.74 225.66 329.58 232.33 320.22 237.29 C 308.95 243.21 296.84 246.97 283.99 246.60 C 266.53 246.17 250.55 238.65 237.21 227.72 C 243.12 223.71 249.25 220.07 255.34 216.36 C 284.83 198.28 314.67 180.79 344.74 163.69 C 369.15 149.45 396.70 139.58 424.99 137.47 Z" fill="#ffffff" />
<path d="M 440.47 159.44 C 449.46 159.88 458.91 160.68 467.50 163.50 C 474.43 165.82 482.01 169.93 484.87 177.08 C 487.87 185.62 483.77 195.47 476.67 200.66 C 470.82 204.59 462.90 205.92 456.01 206.53 C 446.33 206.93 436.39 207.02 426.81 205.42 C 431.60 198.47 435.59 191.09 437.84 182.91 C 440.07 175.26 440.68 167.38 440.47 159.44 Z" fill="#ffffff" />
<path d="M 393.90 230.15 C 395.92 231.17 397.39 233.50 398.73 235.27 C 407.01 247.37 412.66 261.56 414.89 276.05 C 417.00 289.81 415.75 303.64 411.92 316.99 C 423.09 323.36 433.26 331.59 442.31 340.69 C 454.23 353.01 464.17 367.68 467.30 384.81 C 469.90 397.99 467.27 411.58 461.64 423.62 C 453.73 440.09 441.49 454.36 425.79 463.83 C 402.23 478.31 373.32 484.62 346.00 486.42 C 333.23 486.77 320.09 487.00 307.43 485.42 C 285.46 482.95 262.29 477.24 243.16 465.85 C 230.23 458.05 218.48 447.08 213.53 432.45 C 211.36 426.61 211.17 420.63 211.14 414.47 C 218.67 413.54 225.25 411.74 232.18 408.67 C 231.21 406.48 230.21 404.31 229.21 402.13 C 220.38 405.70 210.73 408.42 201.15 406.76 C 191.07 405.42 181.70 400.64 174.42 393.59 C 165.64 385.40 159.29 374.04 157.84 362.05 C 156.93 354.58 158.41 346.93 162.66 340.65 C 166.72 334.78 172.54 329.93 179.22 327.32 C 185.61 324.77 193.13 324.76 199.83 325.96 C 208.81 327.67 216.15 331.94 224.03 336.26 C 225.50 330.44 229.85 327.76 233.04 323.03 C 238.67 315.25 241.61 305.64 239.89 296.05 C 237.86 284.29 231.05 274.43 223.50 265.49 C 218.73 259.83 215.05 253.55 214.73 245.97 C 214.82 243.66 215.01 241.45 217.14 240.11 C 221.47 237.02 226.21 234.50 230.74 231.70 C 242.73 242.32 257.29 249.91 273.09 252.90 C 271.23 257.77 268.48 263.46 268.65 268.73 C 273.96 270.87 279.56 272.24 284.95 274.16 C 279.57 277.66 273.88 280.82 268.26 283.92 C 269.82 294.49 273.02 302.70 278.97 311.53 C 284.68 310.91 290.29 310.32 296.02 311.07 C 303.65 311.71 310.77 314.07 317.85 316.83 C 322.03 310.79 324.93 304.27 325.84 296.94 C 328.21 280.10 323.02 262.08 311.52 249.45 C 319.25 246.03 326.75 242.60 333.60 237.58 C 336.03 236.05 337.90 234.00 340.97 234.26 C 355.06 234.82 370.48 235.76 384.28 232.36 C 387.45 231.66 390.66 230.36 393.90 230.15 Z" fill="#ffffff" />
<path d="M 364.25 250.18 C 368.94 248.80 374.14 250.27 378.16 252.83 C 383.58 256.37 387.67 261.86 390.30 267.72 C 394.46 276.92 395.76 287.67 393.44 297.54 C 392.43 301.94 390.27 305.63 388.02 309.48 C 381.28 306.75 374.34 304.83 367.03 304.67 C 363.83 304.56 360.57 305.01 357.40 304.68 C 352.49 299.22 350.26 290.77 348.99 283.72 C 353.34 281.20 357.72 278.76 361.94 276.01 C 357.61 274.46 353.22 273.10 348.90 271.52 C 350.04 266.93 351.01 262.63 353.57 258.58 C 356.06 254.59 359.64 251.41 364.25 250.18 Z" fill="#023bfd" />
<path d="M 363.01 307.81 C 376.20 306.99 385.24 325.03 377.37 335.36 C 371.80 342.90 363.61 345.12 354.77 346.43 C 354.66 344.09 354.54 341.75 354.40 339.41 C 360.27 338.05 366.77 336.66 370.86 331.84 C 373.64 328.56 373.36 324.16 371.40 320.56 C 369.68 317.32 367.02 314.82 363.08 315.26 C 356.23 315.83 349.72 321.92 344.83 326.35 C 343.04 324.76 341.26 323.17 339.48 321.57 C 345.66 315.14 353.78 308.56 363.01 307.81 Z" fill="#053bf5" />
<path d="M 192.80 339.35 C 194.73 339.35 196.51 339.86 198.32 340.49 C 208.63 344.21 217.38 351.48 223.45 360.56 C 229.15 369.27 232.32 379.77 234.17 389.94 C 230.76 386.96 227.83 383.54 224.58 380.41 C 219.17 375.23 211.43 372.64 203.99 373.58 C 199.13 374.15 195.11 376.14 190.73 378.10 C 189.83 375.79 188.76 373.71 187.46 371.60 C 192.18 369.41 196.70 367.24 201.93 366.51 C 207.93 365.61 213.59 366.69 219.43 367.90 C 216.94 363.97 214.42 360.19 211.03 356.98 C 205.54 351.60 198.76 348.12 191.43 345.97 C 191.86 343.76 192.22 341.52 192.80 339.35 Z" fill="#053bf4" />
<path d="M 404.96 356.01 C 413.61 357.42 421.35 362.45 426.49 369.51 C 431.31 376.04 433.77 383.93 434.13 392.00 C 434.15 401.04 431.20 409.74 426.21 417.23 C 418.61 428.76 406.43 436.89 393.67 441.70 C 380.14 446.75 365.40 448.87 351.00 448.57 C 340.31 448.75 329.41 447.60 319.06 444.90 C 307.98 441.92 297.54 436.87 289.96 428.03 C 283.18 420.29 279.86 410.19 279.86 399.97 C 280.05 391.71 284.07 383.41 288.80 376.80 C 294.43 368.97 303.19 363.70 312.96 363.53 C 322.04 363.16 328.90 367.10 337.73 368.23 C 352.55 370.16 367.23 366.98 380.60 360.56 C 388.29 356.79 396.35 354.54 404.96 356.01 Z" fill="#053bf6" />
<path d="M 397.01 362.95 C 404.25 362.16 411.85 364.86 417.09 369.91 C 424.93 377.29 428.28 388.68 426.10 399.19 C 424.92 405.45 421.82 410.66 418.29 415.86 C 415.00 411.98 411.89 408.29 407.76 405.25 C 396.36 396.63 380.74 395.32 367.32 399.30 C 363.72 400.17 361.10 402.26 357.40 400.59 C 345.09 395.88 331.27 396.36 319.04 401.07 C 308.54 405.00 300.05 412.12 293.80 421.36 C 290.02 415.45 287.37 409.08 287.29 401.95 C 286.84 395.03 289.86 388.24 293.55 382.55 C 297.42 376.72 303.09 372.27 310.13 371.14 C 317.70 369.69 324.99 373.20 332.29 374.61 C 348.64 377.67 365.53 375.37 380.66 368.55 C 386.06 366.12 391.00 363.57 397.01 362.95 Z" fill="#fefffe" />
<path d="M 606.00 382.64 L 606.00 585.00 L 395.42 585.00 C 400.19 583.91 404.87 582.29 409.54 580.83 C 420.74 577.06 431.32 574.25 441.71 568.88 C 452.68 563.22 463.60 559.66 473.92 552.98 C 482.40 547.48 490.95 542.05 499.32 536.38 C 510.18 528.91 518.79 519.18 529.12 511.15 C 534.39 506.92 538.40 501.87 542.84 496.84 C 547.06 492.05 551.25 487.22 555.29 482.27 C 561.66 474.49 567.05 465.78 572.45 457.34 C 575.43 452.68 578.68 448.06 581.34 443.24 C 584.48 437.59 586.99 431.39 589.64 425.47 C 592.93 418.00 596.99 411.09 599.46 403.26 C 601.62 396.40 604.39 389.65 606.00 382.64 Z" fill="#ffffff" />
<path d="M 358.15 408.86 C 364.77 412.20 368.59 417.76 372.43 423.84 C 374.51 422.81 376.60 421.78 378.69 420.75 C 375.77 415.28 372.52 410.88 368.21 406.43 C 377.87 403.95 387.42 403.06 396.79 407.19 C 403.75 410.11 408.64 415.32 413.01 421.29 C 403.60 430.52 391.74 435.41 379.09 438.43 C 361.44 442.36 343.07 442.39 325.35 438.86 C 315.77 436.87 306.72 433.33 299.13 427.03 C 302.03 422.36 305.21 418.00 309.64 414.64 C 323.01 404.22 342.78 401.06 358.15 408.86 Z" fill="#fd98f4" />
</svg>