<?xml version="1.0" encoding="UTF-8" standalone="no"?>
<!DOCTYPE svg PUBLIC "-//W3C//DTD SVG 1.1//EN" "http://www.w3.org/Graphics/SVG/1.1/DTD/svg11.dtd">
<svg xmlns="http://www.w3.org/2000/svg" version="1.1" viewBox="0 0 170 152" width="170.0pt" height="152.0pt">
<path d="M 0.00 0.00 L 170.00 0.00 L 170.00 152.00 L 0.00 152.00 L 0.00 0.00 Z" fill="#a60303" />
<path d="M 30.00 15.88 C 34.01 15.94 38.16 15.67 42.13 16.27 L 43.11 18.31 C 39.44 19.18 35.92 18.93 32.20 18.81 C 31.60 25.57 32.28 32.25 32.22 39.00 C 32.06 47.95 32.45 56.86 32.04 65.80 C 30.76 65.87 29.47 65.93 28.18 66.00 C 28.29 56.99 27.82 48.00 28.11 39.00 C 28.14 32.23 28.51 25.56 27.88 18.81 C 24.35 18.78 20.70 19.10 17.20 18.61 C 16.33 18.31 16.03 17.58 16.31 16.41 C 20.75 15.62 25.50 15.92 30.00 15.88 Z" fill="#f75706" />
<path d="M 57.83 16.28 C 60.31 16.95 63.08 18.42 63.66 21.16 C 64.76 27.20 63.46 33.86 63.59 40.01 C 63.77 46.68 64.10 53.38 63.99 60.05 C 63.95 63.54 60.04 65.52 57.01 65.88 C 53.38 66.39 48.39 66.23 46.09 62.87 C 44.07 58.63 45.26 52.61 45.08 48.00 C 44.76 40.00 44.70 32.01 44.79 24.00 C 44.98 21.76 44.73 19.25 46.76 17.78 C 49.77 15.48 54.30 15.38 57.83 16.28 Z" fill="#f75706" />
<path d="M 72.26 16.43 C 76.14 16.00 80.70 16.02 84.57 16.53 C 87.57 17.07 90.77 18.46 90.92 21.97 C 91.40 27.10 91.42 32.90 91.11 38.04 C 90.90 41.68 87.61 42.73 84.99 44.44 C 91.05 53.38 96.06 62.50 103.72 70.29 C 105.94 70.40 108.15 70.57 110.36 70.83 C 108.32 72.26 106.22 73.53 104.02 74.70 C 101.55 73.05 99.09 71.38 96.68 69.63 C 95.35 69.59 94.02 69.55 92.69 69.50 C 93.91 69.23 95.12 68.96 96.33 68.68 C 91.03 61.63 87.65 53.73 81.99 46.92 C 80.56 44.94 77.73 45.05 75.55 44.44 C 75.58 51.84 76.41 59.33 75.77 66.70 C 74.57 66.54 73.38 66.38 72.18 66.22 C 72.44 55.46 71.64 44.74 72.13 33.99 C 72.32 28.25 71.09 22.05 72.26 16.43 Z" fill="#f75706" />
<path d="M 99.44 16.11 C 105.72 16.20 111.99 16.22 118.26 16.16 C 118.35 17.47 118.45 18.78 118.55 20.09 C 112.18 20.17 105.83 20.11 99.46 19.81 C 99.46 18.57 99.45 17.34 99.44 16.11 Z" fill="#f75706" />
<path d="M 125.23 15.80 C 126.45 15.87 127.67 15.95 128.89 16.04 C 129.39 22.17 129.06 28.40 129.14 34.55 C 132.98 34.53 136.82 34.47 140.67 34.42 C 141.66 28.35 139.84 22.23 141.05 16.29 C 142.25 16.12 143.46 15.98 144.67 15.88 C 144.96 24.59 144.61 33.30 144.83 42.00 C 145.09 49.96 144.55 57.90 144.78 65.85 C 143.41 65.99 142.04 66.14 140.67 66.30 C 140.30 56.58 141.55 46.96 140.69 37.27 C 136.83 37.47 133.02 37.47 129.16 37.30 C 129.09 46.87 129.10 56.45 129.01 66.03 C 127.76 66.06 126.50 66.09 125.25 66.12 C 124.95 49.35 125.41 32.57 125.23 15.80 Z" fill="#f75706" />
<path d="M 155.40 16.52 C 156.64 16.28 157.90 16.07 159.16 15.91 C 159.19 17.99 159.21 20.07 159.23 22.15 C 157.93 22.38 156.63 22.61 155.33 22.84 C 155.30 20.74 155.21 18.61 155.40 16.52 Z" fill="#f75706" />
<path d="M 59.65 21.34 C 60.28 24.11 59.83 27.17 59.91 30.00 C 60.21 40.37 59.63 50.73 59.96 61.11 C 57.65 62.36 55.78 63.73 52.97 63.20 C 50.75 62.86 49.13 61.34 48.96 59.05 C 48.43 48.42 48.99 37.65 48.73 27.00 C 48.82 25.04 48.49 22.31 49.67 20.64 C 52.09 17.75 57.46 18.52 59.65 21.34 Z" fill="#a60303" />
<path d="M 75.57 18.85 C 78.27 18.89 81.14 18.73 83.79 19.30 C 85.10 19.63 86.70 20.63 86.88 22.08 C 87.53 26.32 87.29 30.73 87.23 35.01 C 87.10 36.66 87.17 38.80 86.23 40.22 C 83.27 41.86 79.04 41.44 75.74 41.61 C 76.03 34.01 75.83 26.44 75.57 18.85 Z" fill="#a60303" />
<path d="M 116.07 24.94 C 119.43 27.95 119.23 34.21 118.23 38.20 C 117.12 38.61 115.98 38.97 114.83 39.28 C 114.73 36.04 115.01 32.66 114.43 29.46 C 113.49 26.19 108.47 25.53 105.81 26.79 C 102.91 28.34 103.39 31.42 103.35 34.20 C 103.81 42.50 103.39 50.80 103.64 59.10 C 103.78 64.77 114.55 64.64 114.66 58.88 C 114.69 54.49 114.12 50.17 114.56 45.78 C 115.74 45.89 116.91 46.00 118.09 46.11 C 118.42 51.22 118.75 56.78 117.65 61.81 C 117.01 64.50 113.49 65.82 111.05 66.14 C 107.39 66.63 102.53 66.08 100.61 62.44 C 98.39 53.77 100.73 44.77 99.59 35.99 C 99.38 32.88 98.91 27.81 101.50 25.53 C 105.50 22.46 111.79 22.47 116.07 24.94 Z" fill="#f75706" />
<path d="M 155.36 25.46 C 156.62 25.23 157.89 25.04 159.17 24.89 C 159.26 38.55 159.17 52.22 159.18 65.88 C 157.87 65.97 156.55 66.06 155.24 66.15 C 155.24 52.64 155.21 38.96 155.36 25.46 Z" fill="#f75706" />
<path d="M 28.41 71.22 C 31.53 70.16 35.40 70.84 38.67 70.89 C 41.22 86.12 43.50 101.42 45.37 116.75 C 42.21 115.29 39.21 113.66 36.26 111.81 C 35.95 110.02 35.63 108.24 35.31 106.45 C 33.16 105.07 31.01 103.69 28.85 102.31 C 28.30 103.32 27.75 104.33 27.19 105.34 C 24.61 103.13 21.63 100.99 19.56 98.28 C 20.02 94.48 22.01 90.79 23.11 87.12 C 25.05 81.89 26.17 76.31 28.41 71.22 Z" fill="#f75706" />
<path d="M 133.13 70.73 C 135.94 70.74 138.75 70.77 141.56 70.83 C 142.43 81.55 142.60 92.30 143.35 103.02 C 143.51 106.27 143.88 109.60 143.60 112.83 C 141.11 115.00 137.80 116.24 135.03 118.03 C 132.19 119.65 129.47 121.71 126.11 120.01 C 122.41 117.78 121.30 112.00 120.78 108.07 C 120.09 101.60 120.25 93.49 123.84 87.85 C 126.18 84.26 129.54 84.09 133.42 83.47 C 133.25 79.22 133.15 74.98 133.13 70.73 Z" fill="#f75706" />
<path d="M 96.77 72.02 C 97.36 73.98 98.12 75.98 98.41 78.02 C 98.76 79.36 97.87 80.21 96.60 80.37 C 92.81 80.75 89.03 81.11 85.25 81.68 C 85.76 79.58 86.42 77.94 87.60 76.16 C 86.66 76.22 85.72 76.28 84.78 76.34 C 85.33 75.24 85.88 74.14 86.42 73.04 C 88.42 73.49 90.51 72.71 91.42 74.98 C 90.89 76.38 90.20 77.71 89.51 79.03 C 91.86 78.50 94.23 78.02 96.60 77.54 C 95.10 77.48 93.59 77.42 92.09 77.36 C 92.17 75.88 92.27 74.41 92.39 72.94 L 92.92 72.77 C 94.20 72.48 95.48 72.25 96.77 72.02 Z" fill="#f75706" />
<path d="M 74.07 74.32 C 75.57 74.18 76.36 75.73 77.38 76.59 C 76.93 77.53 76.49 78.48 76.04 79.42 C 76.66 80.43 77.27 81.44 77.89 82.45 C 75.62 82.59 73.34 82.73 71.07 82.85 C 71.41 81.44 71.74 80.04 72.08 78.63 C 71.69 77.93 71.31 77.24 70.93 76.53 C 71.93 75.49 72.44 74.30 74.07 74.32 Z" fill="#f75706" />
<path d="M 79.30 74.25 C 81.23 72.80 84.22 74.17 84.64 76.47 C 84.93 77.93 84.90 79.73 84.06 81.01 C 82.58 82.10 81.02 82.98 79.39 81.61 C 76.83 80.30 76.69 75.56 79.30 74.25 Z" fill="#f75706" />
<path d="M 81.19 76.28 C 82.75 76.56 82.84 79.41 81.23 79.64 C 79.75 79.36 79.61 76.49 81.19 76.28 Z" fill="#a60303" />
<path d="M 162.75 80.59 C 161.75 82.91 160.72 85.22 159.65 87.51 C 157.16 87.94 154.71 88.50 152.37 89.48 C 155.42 89.81 159.87 88.60 162.51 90.42 C 163.46 94.89 161.19 99.11 158.44 102.47 C 154.78 106.60 150.74 110.09 144.80 109.42 C 145.48 106.03 146.34 102.75 147.44 99.47 C 150.13 99.05 152.73 98.46 155.29 97.53 C 152.75 97.20 149.92 97.32 147.48 96.49 C 145.30 95.09 145.12 92.33 145.20 89.99 C 145.32 86.13 147.29 82.44 150.96 80.92 C 154.87 79.24 158.72 79.69 162.75 80.59 Z" fill="#f75706" />
<path d="M 45.30 83.66 C 46.47 83.83 47.64 83.99 48.81 84.16 C 50.71 84.43 52.62 84.71 54.52 84.98 C 55.00 88.52 55.56 92.03 56.26 95.53 C 57.12 92.18 57.94 88.82 58.76 85.45 C 60.79 85.60 62.82 85.74 64.85 85.89 C 65.50 89.68 66.10 93.49 66.71 97.29 C 67.65 93.35 68.60 89.40 69.66 85.48 C 72.70 85.73 75.73 86.11 78.75 86.55 C 76.27 99.63 73.81 112.71 71.02 125.73 C 68.14 125.07 65.26 124.38 62.40 123.64 C 61.90 120.24 61.33 116.85 60.59 113.50 C 59.83 116.40 59.13 119.32 58.46 122.24 C 55.56 121.29 52.73 120.24 49.91 119.08 C 48.51 107.26 46.61 95.50 45.30 83.66 Z" fill="#f75706" />
<path d="M 115.13 85.48 C 117.26 84.89 119.25 86.96 120.99 87.97 C 120.15 92.64 119.44 97.34 118.71 102.03 C 116.87 101.80 114.53 100.97 112.77 101.72 C 111.73 103.65 111.90 105.88 111.91 108.00 C 112.16 113.78 112.25 119.56 112.44 125.35 C 109.37 126.05 106.32 126.57 103.19 126.95 C 102.49 113.22 102.42 99.46 102.54 85.72 C 106.79 85.98 110.93 86.31 115.13 85.48 Z" fill="#f75706" />
<path d="M 94.57 87.44 C 98.91 90.09 100.25 95.19 100.51 99.96 C 100.81 109.05 100.96 118.16 100.85 127.26 C 97.57 127.60 94.38 127.62 91.12 127.12 C 88.71 127.67 85.44 129.11 83.12 127.89 C 79.86 126.29 78.80 122.37 78.55 119.03 C 78.29 114.94 78.76 109.74 81.50 106.47 C 83.63 103.79 87.04 103.94 90.14 103.31 C 90.00 102.47 89.86 101.64 89.72 100.81 C 86.80 100.81 84.47 101.37 81.78 102.46 C 81.27 98.28 79.85 93.66 80.47 89.47 C 83.71 85.83 90.53 84.34 94.57 87.44 Z" fill="#f75706" />
<path d="M 32.33 88.54 C 32.88 90.69 33.40 92.85 33.92 95.01 C 32.97 94.87 32.01 94.72 31.06 94.57 C 31.26 93.61 31.46 92.65 31.66 91.69 C 31.88 90.64 32.11 89.59 32.33 88.54 Z" fill="#a60303" />
<path d="M 131.39 97.43 C 133.29 96.39 134.40 98.58 134.57 100.18 C 134.81 102.80 134.61 106.56 131.23 106.86 C 129.09 104.37 128.50 99.55 131.39 97.43 Z" fill="#a60303" />
<path d="M 89.18 112.23 C 93.18 113.53 90.95 116.68 90.12 119.44 C 87.92 117.00 86.66 115.05 89.18 112.23 Z" fill="#a60303" />
<path d="M 122.88 129.56 L 122.99 130.03 C 123.18 131.68 123.28 133.34 123.41 134.99 C 126.26 132.20 127.58 131.06 131.71 130.94 C 132.51 131.84 133.32 132.73 134.12 133.63 C 136.49 132.62 138.90 131.87 141.40 131.26 C 139.65 130.51 137.93 129.71 136.23 128.87 C 138.76 129.07 141.61 128.33 143.31 130.69 C 144.48 133.23 143.60 136.66 141.19 138.20 C 139.14 139.75 136.47 138.64 134.14 138.39 C 133.11 139.57 132.09 140.88 130.86 141.83 C 129.11 143.00 126.50 142.09 124.52 141.93 C 127.43 141.26 129.85 140.97 131.89 138.59 C 129.49 138.36 127.09 138.15 124.69 137.91 C 123.53 138.98 122.37 140.33 120.94 141.02 C 119.22 141.22 117.42 140.79 115.71 140.58 C 113.05 143.53 110.56 145.32 106.48 143.52 C 105.98 141.40 105.96 139.14 106.19 136.98 C 105.89 132.98 111.94 131.44 114.59 133.48 C 114.79 135.13 114.16 136.97 113.83 138.57 C 115.84 135.66 117.82 134.24 120.95 132.69 C 121.60 131.75 121.94 130.23 122.88 129.56 Z" fill="#f75706" />
<path d="M 127.46 133.14 C 129.33 132.58 130.35 131.68 131.40 134.00 C 131.23 137.21 129.30 136.55 126.91 137.21 C 127.04 135.84 127.23 134.49 127.46 133.14 Z" fill="#a60303" />
<path d="M 140.74 132.90 C 140.74 134.16 140.74 135.42 140.74 136.68 C 139.82 137.12 138.91 137.55 137.99 137.99 C 137.38 137.28 136.78 136.57 136.18 135.86 C 137.28 133.17 138.17 133.41 140.74 132.90 Z" fill="#a60303" />
<path d="M 112.57 133.71 C 112.11 136.03 110.73 137.16 109.06 138.61 C 110.51 138.88 111.96 139.15 113.42 139.44 C 112.77 140.42 112.13 141.50 111.33 142.36 C 110.23 142.47 109.12 142.46 108.01 142.47 C 108.21 139.98 108.23 137.37 108.82 134.93 C 110.04 134.45 111.30 134.05 112.57 133.71 Z" fill="#a60303" />
<path d="M 121.00 135.01 C 121.47 136.33 121.88 137.67 122.30 139.01 C 120.83 139.36 119.37 139.72 117.90 140.07 C 118.01 138.53 118.12 137.00 118.29 135.47 C 119.19 135.30 120.09 135.15 121.00 135.01 Z" fill="#a60303" />
</svg>